<?xml version="1.0" encoding="UTF-8"?>
<svg version="1.1" xmlns="http://www.w3.org/2000/svg" width="1024" height="1024">
<path d="M0 0 C337.92 0 675.84 0 1024 0 C1024 337.92 1024 675.84 1024 1024 C686.08 1024 348.16 1024 0 1024 C0 686.08 0 348.16 0 0 Z " fill="#FEFEFE" transform="translate(0,0)"/>
<path d="M0 0 C5.6160492 2.40687823 8.81615908 7.27439601 12.53125 11.94921875 C23.79890697 25.87333282 36.79092153 39.09885514 51 50 C51.57943359 50.45052734 52.15886719 50.90105469 52.75585938 51.36523438 C68.6371873 63.69177801 85.48278333 74.17045573 103 84 C104.33514648 84.75385986 104.33514648 84.75385986 105.69726562 85.52294922 C145.30011236 107.78740878 187.77972249 124.35483323 229.8609314 141.24996948 C253.15277224 150.60431761 276.38299667 160.08828787 299 171 C299.23460937 170.30648437 299.46921875 169.61296875 299.7109375 168.8984375 C301.25017417 165.43748717 303.34309737 162.61628746 305.625 159.625 C310.55583008 153.03185713 315.30743164 146.32709713 320 139.5625 C320.68747314 138.5727417 321.37494629 137.5829834 322.08325195 136.56323242 C325.10234642 132.20885898 328.11083897 127.84815799 331.08203125 123.4609375 C337.03819457 114.67218102 343.26744077 106.21152253 350 98 C350.46486816 97.43071777 350.92973633 96.86143555 351.40869141 96.27490234 C374.30145923 68.41876256 402.05637682 44.88188054 439 40 C471.96696708 37.50107054 501.89970765 46.51068321 527 68 C539.51098724 78.99756136 548.59333197 91.80341638 553 108 C553.01023193 109.00240723 553.02046387 110.00481445 553.03100586 111.03759766 C553.32433316 115.13236411 553.83322986 117.47984693 556 121 C562.39555056 125.27765617 570.38211415 127.00439685 577.6875 129.125 C579.72748536 129.75797045 581.76592498 130.39594562 583.80273438 131.0390625 C588.39767011 132.4839743 593.00491506 133.87735682 597.62884521 135.22654724 C599.89898534 135.96704978 601.97492791 136.8967952 604.14233398 137.89135742 C607.19897841 139.05725707 608.86209776 139.05961909 611.92724609 137.90698242 C613.30638271 137.25129515 614.67149356 136.56553296 616.0234375 135.85546875 C616.76848541 135.49286453 617.51353333 135.13026031 618.28115845 134.75666809 C620.65946961 133.5925441 623.0168013 132.39176379 625.375 131.1875 C626.91927195 130.41990314 628.46483892 129.65490587 630.01171875 128.89257812 C632.33116192 127.74913237 634.64997903 126.6047013 636.9649353 125.45219421 C642.53139085 122.68861576 648.14322551 120.04598921 653.8125 117.5 C654.55180756 117.16393234 655.29111511 116.82786469 656.05282593 116.48161316 C662.94862813 113.42143863 668.94931522 111.76486249 676.3125 114.1875 C687.32634259 119.1636337 690.80905208 130.46185707 695.5625 140.875 C696.08352295 142.01066406 696.6045459 143.14632812 697.14135742 144.31640625 C702.28764127 155.56660199 707.31884846 166.86708963 712.31396484 178.18505859 C713.86446615 181.69628041 715.42215354 185.20428664 716.98069763 188.71194458 C718.35907219 191.81522589 719.73498376 194.91959558 721.11044312 198.02416992 C721.78114084 199.53692667 722.45269601 201.04930358 723.12515259 202.5612793 C724.06782832 204.6816289 725.00696606 206.80351289 725.9453125 208.92578125 C726.22498367 209.5527742 726.50465485 210.17976715 726.7928009 210.82575989 C730.76760681 219.84322201 732.96603986 228.65376093 729.9375 238.375 C726.66952549 245.41997625 719.73329795 249.00925041 712.9375 252.0625 C711.7306958 252.6198584 711.7306958 252.6198584 710.49951172 253.18847656 C701.63969356 257.24177363 692.67966546 261.0751932 683.73071289 264.92675781 C673.88412607 269.16627641 664.09029498 273.51467968 654.31445312 277.9152832 C652.51137695 278.72678833 652.51137695 278.72678833 650.671875 279.5546875 C650.06069824 279.82977646 649.44952148 280.10486542 648.81982422 280.38829041 C643.97453885 282.5669538 639.12154392 284.72796488 634.265625 286.8828125 C633.51803421 287.21456985 632.77044342 287.54632721 632.00019836 287.88813782 C628.94831755 289.24211469 625.89626159 290.59569499 622.84384155 291.94845581 C614.56848294 295.61668484 606.30333034 299.30474254 598.06640625 303.05859375 C597.35349426 303.38296921 596.64058228 303.70734467 595.90606689 304.04154968 C592.53688606 305.57485442 589.17000881 307.11283686 585.80712891 308.65991211 C584.61651855 309.20268799 583.4259082 309.74546387 582.19921875 310.3046875 C581.16627686 310.77890137 580.13333496 311.25311523 579.0690918 311.74169922 C571.22848248 314.95628043 562.99955021 316.67266258 554.66015625 314.34765625 C543.87834583 309.52584852 540.07865653 298.38825353 535.625 288.3125 C534.93436132 286.7720435 534.2427751 285.2320115 533.55029297 283.69238281 C532.10075089 280.46352317 530.65884831 277.23140114 529.22265625 273.99658203 C527.36012714 269.80332181 525.48097328 265.61777512 523.59561157 261.43473816 C522.12181991 258.16355929 520.65302833 254.89015428 519.18572998 251.61605835 C518.48336478 250.04936647 517.77996897 248.48313618 517.07550049 246.91738892 C516.08972911 244.72310738 515.11039058 242.52606676 514.1328125 240.328125 C513.84394165 239.68785873 513.5550708 239.04759247 513.25744629 238.38792419 C511.45398506 234.31026219 510.13612516 230.29754691 509 226 C508.34 226 507.68 226 507 226 C506.87794189 226.68602295 506.75588379 227.3720459 506.63012695 228.07885742 C505.91824286 231.37900975 504.94668246 234.52232157 503.91796875 237.73828125 C503.48228221 239.10935648 503.04665695 240.48045119 502.61108398 241.8515625 C502.37976776 242.57633789 502.14845154 243.30111328 501.91012573 244.04785156 C498.49294053 254.75702339 495.12539543 265.47714011 491.953125 276.26171875 C474.12022206 336.88659136 449.17061371 397.82737173 396 436 C395.41959961 436.41942871 394.83919922 436.83885742 394.24121094 437.27099609 C366.31796267 457.22164385 334.04686746 468.54640339 300.10546875 472.73364258 C298.19197467 472.97571378 296.28479356 473.26643983 294.37890625 473.5625 C287.91563266 474.357943 281.37661239 474.19852927 274.875 474.1875 C274.16414246 474.18656342 273.45328491 474.18562683 272.72088623 474.18466187 C246.40280902 474.10974993 220.7328915 470.83783411 195.58374023 462.79199219 C189.80550341 460.87256188 189.80550341 460.87256188 184 462 C181.44162867 463.64436414 179.07164024 465.48958149 176.6875 467.375 C171.33217842 471.50703723 165.92898303 475.48089377 160.3125 479.25 C153.92102893 483.5639253 147.79158565 488.16471679 141.6875 492.875 C133.3711185 499.28774122 124.86486911 505.31441734 116.15625 511.1796875 C112.83520281 513.41797825 109.58870971 515.73407741 106.375 518.125 C80.13218989 537.40212595 43.30029152 562.82708971 9 559 C2.97004486 557.26872413 0.06473386 554.52970261 -3 549 C-6.71451544 527.55827984 6.38675278 503.20272917 18 486 C24.2251494 477.40905486 31.45216506 469.44583717 39 462 C34.55168951 460.62314199 30.13597514 459.63333406 25.5625 458.75 C3.00650063 453.9661189 -16.31115121 442.74581452 -33 427 C-33.6496875 426.40316406 -34.299375 425.80632812 -34.96875 425.19140625 C-40.87565768 419.5824347 -46.53961969 412.97210737 -47.3125 404.625 C-46.94770412 400.39336784 -46.00965455 398.92366442 -43 396 C-36.73104771 393.91034924 -30.36001372 395.05824601 -23.953125 395.99609375 C-14.1230665 397.31043111 -4.33948686 397.30910042 5.5625 397.25 C6.4878656 397.24689819 7.4132312 397.24379639 8.36663818 397.24060059 C22.31967224 397.1857966 36.15767123 396.90785655 50 395 C50.94294922 394.87109375 51.88589844 394.7421875 52.85742188 394.609375 C75.86287009 391.3423291 98.11715685 385.77749841 120 378 C117.0049002 376.0032668 114.2795593 374.87977951 110.9375 373.5625 C98.216885 368.30903359 80.69072931 359.7939464 73 348 C72.05641679 345.30328208 71.72818918 342.84835089 72 340 C75.25890695 335.31532126 78.58324599 334.24446451 84 333 C86.64295657 332.8698051 89.29175297 332.82817262 91.9375 332.875 C92.62134766 332.88402344 93.30519531 332.89304687 94.00976562 332.90234375 C95.67333287 332.92561042 97.33671631 332.96146833 99 333 C99 332.34 99 331.68 99 331 C98.03835938 330.90589844 97.07671875 330.81179688 96.0859375 330.71484375 C66.19756013 326.38830242 37.27472836 301.24133241 19.625 278.125 C11.65334569 267.36811692 2.17602819 253.99211252 4 240 C6.16184177 236.37119417 8.16266129 234.61974623 12 233 C14.359375 232.5859375 14.359375 232.5859375 16.75 232.375 C17.94882813 232.26285156 17.94882813 232.26285156 19.171875 232.1484375 C19.77515625 232.09945312 20.3784375 232.05046875 21 232 C20.35937622 231.39079712 20.35937622 231.39079712 19.70581055 230.76928711 C-6.96424321 205.2303214 -29.29867502 169.32238213 -31.1796875 131.375 C-31.37768804 120.63897059 -31.37768804 120.63897059 -29 117 C-26.3284463 115.02107133 -23.59213184 114.5323099 -20.28125 114.59765625 C-14.96056768 115.53606426 -9.95727711 117.91272543 -5 120 C-5.49628906 119.19820313 -5.99257812 118.39640625 -6.50390625 117.5703125 C-24.46769705 87.82501669 -30.63103467 49.69214766 -22.265625 15.78515625 C-18.42567842 4.30087156 -12.22371482 -1.25079873 0 0 Z " fill="#109BFE" transform="translate(183,212)"/>
<path d="M0 0 C5.6160492 2.40687823 8.81615908 7.27439601 12.53125 11.94921875 C23.79890697 25.87333282 36.79092153 39.09885514 51 50 C51.57943359 50.45052734 52.15886719 50.90105469 52.75585938 51.36523438 C68.6371873 63.69177801 85.48278333 74.17045573 103 84 C104.33514648 84.75385986 104.33514648 84.75385986 105.69726562 85.52294922 C145.30011236 107.78740878 187.77972249 124.35483323 229.8609314 141.24996948 C253.15277224 150.60431761 276.38299667 160.08828787 299 171 C299.23460937 170.30648437 299.46921875 169.61296875 299.7109375 168.8984375 C301.25017417 165.43748717 303.34309737 162.61628746 305.625 159.625 C310.55583008 153.03185713 315.30743164 146.32709713 320 139.5625 C320.68747314 138.5727417 321.37494629 137.5829834 322.08325195 136.56323242 C325.10234642 132.20885898 328.11083897 127.84815799 331.08203125 123.4609375 C337.03819457 114.67218102 343.26744077 106.21152253 350 98 C350.46486816 97.43071777 350.92973633 96.86143555 351.40869141 96.27490234 C374.30145923 68.41876256 402.05637682 44.88188054 439 40 C471.96696708 37.50107054 501.89970765 46.51068321 527 68 C539.51098724 78.99756136 548.59333197 91.80341638 553 108 C553.01023193 109.00240723 553.02046387 110.00481445 553.03100586 111.03759766 C553.32433316 115.13236411 553.83322986 117.47984693 556 121 C562.39555056 125.27765617 570.38211415 127.00439685 577.6875 129.125 C579.72748536 129.75797045 581.76592498 130.39594562 583.80273438 131.0390625 C588.39767011 132.4839743 593.00491506 133.87735682 597.62884521 135.22654724 C599.89898534 135.96704978 601.97492791 136.8967952 604.14233398 137.89135742 C607.19897841 139.05725707 608.86209776 139.05961909 611.92724609 137.90698242 C613.30638271 137.25129515 614.67149356 136.56553296 616.0234375 135.85546875 C616.76848541 135.49286453 617.51353333 135.13026031 618.28115845 134.75666809 C620.65946961 133.5925441 623.0168013 132.39176379 625.375 131.1875 C626.91927195 130.41990314 628.46483892 129.65490587 630.01171875 128.89257812 C632.33116192 127.74913237 634.64997903 126.6047013 636.9649353 125.45219421 C642.53139085 122.68861576 648.14322551 120.04598921 653.8125 117.5 C654.55180756 117.16393234 655.29111511 116.82786469 656.05282593 116.48161316 C662.94862813 113.42143863 668.94931522 111.76486249 676.3125 114.1875 C687.32634259 119.1636337 690.80905208 130.46185707 695.5625 140.875 C696.08352295 142.01066406 696.6045459 143.14632812 697.14135742 144.31640625 C702.28764127 155.56660199 707.31884846 166.86708963 712.31396484 178.18505859 C713.86446615 181.69628041 715.42215354 185.20428664 716.98069763 188.71194458 C718.35907219 191.81522589 719.73498376 194.91959558 721.11044312 198.02416992 C721.78114084 199.53692667 722.45269601 201.04930358 723.12515259 202.5612793 C724.06782832 204.6816289 725.00696606 206.80351289 725.9453125 208.92578125 C726.22498367 209.5527742 726.50465485 210.17976715 726.7928009 210.82575989 C730.76760681 219.84322201 732.96603986 228.65376093 729.9375 238.375 C726.66952549 245.41997625 719.73329795 249.00925041 712.9375 252.0625 C711.7306958 252.6198584 711.7306958 252.6198584 710.49951172 253.18847656 C701.63969356 257.24177363 692.67966546 261.0751932 683.73071289 264.92675781 C673.88412607 269.16627641 664.09029498 273.51467968 654.31445312 277.9152832 C652.51137695 278.72678833 652.51137695 278.72678833 650.671875 279.5546875 C650.06069824 279.82977646 649.44952148 280.10486542 648.81982422 280.38829041 C643.97453885 282.5669538 639.12154392 284.72796488 634.265625 286.8828125 C633.51803421 287.21456985 632.77044342 287.54632721 632.00019836 287.88813782 C628.94831755 289.24211469 625.89626159 290.59569499 622.84384155 291.94845581 C614.56848294 295.61668484 606.30333034 299.30474254 598.06640625 303.05859375 C597.35349426 303.38296921 596.64058228 303.70734467 595.90606689 304.04154968 C592.53688606 305.57485442 589.17000881 307.11283686 585.80712891 308.65991211 C584.61651855 309.20268799 583.4259082 309.74546387 582.19921875 310.3046875 C581.16627686 310.77890137 580.13333496 311.25311523 579.0690918 311.74169922 C571.22848248 314.95628043 562.99955021 316.67266258 554.66015625 314.34765625 C543.87834583 309.52584852 540.07865653 298.38825353 535.625 288.3125 C534.93436132 286.7720435 534.2427751 285.2320115 533.55029297 283.69238281 C532.10075089 280.46352317 530.65884831 277.23140114 529.22265625 273.99658203 C527.36012714 269.80332181 525.48097328 265.61777512 523.59561157 261.43473816 C522.12181991 258.16355929 520.65302833 254.89015428 519.18572998 251.61605835 C518.48336478 250.04936647 517.77996897 248.48313618 517.07550049 246.91738892 C516.08972911 244.72310738 515.11039058 242.52606676 514.1328125 240.328125 C513.84394165 239.68785873 513.5550708 239.04759247 513.25744629 238.38792419 C511.45398506 234.31026219 510.13612516 230.29754691 509 226 C508.34 226 507.68 226 507 226 C506.87794189 226.68602295 506.75588379 227.3720459 506.63012695 228.07885742 C505.91824286 231.37900975 504.94668246 234.52232157 503.91796875 237.73828125 C503.48228221 239.10935648 503.04665695 240.48045119 502.61108398 241.8515625 C502.37976776 242.57633789 502.14845154 243.30111328 501.91012573 244.04785156 C498.49294053 254.75702339 495.12539543 265.47714011 491.953125 276.26171875 C474.12022206 336.88659136 449.17061371 397.82737173 396 436 C395.41959961 436.41942871 394.83919922 436.83885742 394.24121094 437.27099609 C366.31796267 457.22164385 334.04686746 468.54640339 300.10546875 472.73364258 C298.19197467 472.97571378 296.28479356 473.26643983 294.37890625 473.5625 C287.91563266 474.357943 281.37661239 474.19852927 274.875 474.1875 C274.16414246 474.18656342 273.45328491 474.18562683 272.72088623 474.18466187 C246.40280902 474.10974993 220.7328915 470.83783411 195.58374023 462.79199219 C189.80550341 460.87256188 189.80550341 460.87256188 184 462 C181.44162867 463.64436414 179.07164024 465.48958149 176.6875 467.375 C171.33217842 471.50703723 165.92898303 475.48089377 160.3125 479.25 C153.92102893 483.5639253 147.79158565 488.16471679 141.6875 492.875 C133.3711185 499.28774122 124.86486911 505.31441734 116.15625 511.1796875 C112.83520281 513.41797825 109.58870971 515.73407741 106.375 518.125 C80.13218989 537.40212595 43.30029152 562.82708971 9 559 C2.97004486 557.26872413 0.06473386 554.52970261 -3 549 C-6.71451544 527.55827984 6.38675278 503.20272917 18 486 C24.2251494 477.40905486 31.45216506 469.44583717 39 462 C34.55168951 460.62314199 30.13597514 459.63333406 25.5625 458.75 C3.00650063 453.9661189 -16.31115121 442.74581452 -33 427 C-33.6496875 426.40316406 -34.299375 425.80632812 -34.96875 425.19140625 C-40.87565768 419.5824347 -46.53961969 412.97210737 -47.3125 404.625 C-46.94770412 400.39336784 -46.00965455 398.92366442 -43 396 C-36.73104771 393.91034924 -30.36001372 395.05824601 -23.953125 395.99609375 C-14.1230665 397.31043111 -4.33948686 397.30910042 5.5625 397.25 C6.4878656 397.24689819 7.4132312 397.24379639 8.36663818 397.24060059 C22.31967224 397.1857966 36.15767123 396.90785655 50 395 C50.94294922 394.87109375 51.88589844 394.7421875 52.85742188 394.609375 C75.86287009 391.3423291 98.11715685 385.77749841 120 378 C117.0049002 376.0032668 114.2795593 374.87977951 110.9375 373.5625 C98.216885 368.30903359 80.69072931 359.7939464 73 348 C72.05641679 345.30328208 71.72818918 342.84835089 72 340 C75.25890695 335.31532126 78.58324599 334.24446451 84 333 C86.64295657 332.8698051 89.29175297 332.82817262 91.9375 332.875 C92.62134766 332.88402344 93.30519531 332.89304687 94.00976562 332.90234375 C95.67333287 332.92561042 97.33671631 332.96146833 99 333 C99 332.34 99 331.68 99 331 C98.03835938 330.90589844 97.07671875 330.81179688 96.0859375 330.71484375 C66.19756013 326.38830242 37.27472836 301.24133241 19.625 278.125 C11.65334569 267.36811692 2.17602819 253.99211252 4 240 C6.16184177 236.37119417 8.16266129 234.61974623 12 233 C14.359375 232.5859375 14.359375 232.5859375 16.75 232.375 C17.94882813 232.26285156 17.94882813 232.26285156 19.171875 232.1484375 C19.77515625 232.09945312 20.3784375 232.05046875 21 232 C20.35937622 231.39079712 20.35937622 231.39079712 19.70581055 230.76928711 C-6.96424321 205.2303214 -29.29867502 169.32238213 -31.1796875 131.375 C-31.37768804 120.63897059 -31.37768804 120.63897059 -29 117 C-26.3284463 115.02107133 -23.59213184 114.5323099 -20.28125 114.59765625 C-14.96056768 115.53606426 -9.95727711 117.91272543 -5 120 C-5.49628906 119.19820313 -5.99257812 118.39640625 -6.50390625 117.5703125 C-24.46769705 87.82501669 -30.63103467 49.69214766 -22.265625 15.78515625 C-18.42567842 4.30087156 -12.22371482 -1.25079873 0 0 Z M-4 23 C-5.94891975 30.81676638 -6.30424784 38.2792994 -6.25 46.3125 C-6.25773437 47.44623047 -6.26546875 48.57996094 -6.2734375 49.74804688 C-6.24756134 61.10121111 -4.68730006 71.9533428 -1.375 82.8125 C-0.9869519 84.08697998 -0.9869519 84.08697998 -0.59106445 85.38720703 C9.11769441 115.92821297 31.9416726 141.61269804 56 162 C49.99273421 161.42592682 44.64728322 160.17927891 38.9375 158.25 C38.06424072 157.95778564 37.19098145 157.66557129 36.29125977 157.36450195 C22.1574706 152.48315138 6.85790704 147.06515434 -6.21459961 139.76293945 C-8.1776604 138.69056809 -8.1776604 138.69056809 -11 140 C-2.53887512 176.69199347 17.96133165 210.6210984 50.25 231.125 C62.96949908 238.65070362 76.2783489 244.56568273 90 250 C90 250.33 90 250.66 90 251 C68.59407058 253.76843429 47.51227176 253.12061709 26 252 C43.52845001 284.73407235 73.55057873 305.02297972 108.41015625 315.88671875 C121.05423113 319.57351644 134.03017131 321.97332013 146.96679688 324.38671875 C150 325 150 325 153 326 C138.46582436 336.12926487 124.1520847 345.06227865 107 350 C128.22375691 367.37887341 162.7680789 369.42004941 188.73046875 367.76171875 C210.66387258 365.11688686 231.51073952 356.84392128 252 349 C250.89753184 350.26336688 249.79457033 351.52630325 248.69140625 352.7890625 C248.07724854 353.49240723 247.46309082 354.19575195 246.83032227 354.92041016 C231.27327098 372.59614216 209.2212459 384.01900319 185.578125 385.9140625 C176.10174114 386.22994196 166.84714305 386.26533087 157.4375 385 C148.70321074 384.33099061 142.67096129 387.94671214 135.17382812 391.89794922 C102.19079307 408.61913299 60.31641722 416.27325035 23.55078125 416.09765625 C21.84283638 416.09553383 21.84283638 416.09553383 20.10038757 416.09336853 C16.50439702 416.08782209 12.90847137 416.07527989 9.3125 416.0625 C6.85742278 416.05747807 4.40234458 416.05291638 1.94726562 416.04882812 C-4.03517797 416.03787028 -10.01758434 416.02118647 -16 416 C-4.85295323 430.47081729 15.78482743 437.09985128 33 441 C34.15060913 441.26369385 34.15060913 441.26369385 35.32446289 441.53271484 C57.81770237 445.46118098 80.17665225 440.08118653 101.55859375 433.69335938 C102.72132813 433.34724609 103.8840625 433.00113281 105.08203125 432.64453125 C106.12593018 432.32846924 107.1698291 432.01240723 108.24536133 431.68676758 C111 431 111 431 115 431 C104.73816525 439.60908732 93.65657804 446.96330882 82.45703125 454.28515625 C51.32213949 474.67780379 26.69250794 497.75036163 17 535 C16.792399 537.84513633 16.792399 537.84513633 17 540 C41.72469145 536.91516885 63.60751073 524.68549415 84 511 C84.78616699 510.4750293 85.57233398 509.95005859 86.38232422 509.40917969 C97.35353026 502.0592545 108.09291474 494.39921859 118.76611328 486.625 C123.25165976 483.36207133 127.75203016 480.11958113 132.25244141 476.87719727 C136.00264535 474.17332544 139.74295424 471.45758877 143.46484375 468.71484375 C164.39477164 453.33770718 186.59156761 440.25975229 210 429 C206 433.66666667 202 438.33333333 198 443 C204.97406103 446.49427774 211.9700818 448.43182355 219.5625 450.125 C220.62791016 450.37636719 221.69332031 450.62773438 222.79101562 450.88671875 C238.72185245 454.51556769 254.22640865 455.40783803 270.5 455.375 C271.95416824 455.37468277 271.95416824 455.37468277 273.43771362 455.37435913 C288.34804811 455.34192832 302.45487211 454.51567441 317 451 C317.82032715 450.81808105 318.6406543 450.63616211 319.48583984 450.44873047 C348.27309294 444.06360932 374.82673904 430.38974175 397 411 C397.50740723 410.55962402 398.01481445 410.11924805 398.53759766 409.66552734 C412.85741809 397.15580879 423.89659813 383.06543023 434 367 C434.42490723 366.33194336 434.84981445 365.66388672 435.28759766 364.97558594 C454.74312852 334.14593377 465.38762207 300.34398903 475.67572021 265.72631836 C483.10945366 240.72829995 490.75714054 215.87485123 501.5769043 192.08178711 C504.23077741 186.08838127 506.00672734 180.08137992 504.0625 173.5625 C501.8964704 164.68632277 502.75985699 159.1138384 507.171875 150.98046875 C512.83684113 141.74463722 520.61239659 132.52957411 529.484375 126.23828125 C531.77141824 124.60974874 533.42801399 123.33007393 535 121 C536.02009188 110.4126828 529.30811239 99.70371318 523.0625 91.6875 C521.72433607 90.1112732 520.37131484 88.54747188 519 87 C518.49210938 86.39800781 517.98421875 85.79601562 517.4609375 85.17578125 C502.67868332 68.91530165 478.85595778 59.77457741 457.30859375 58.62109375 C434.55016969 57.91600378 415.21968196 64.16782067 397 78 C395.61361328 79.04994141 395.61361328 79.04994141 394.19921875 80.12109375 C383.74607797 88.36561144 374.3996268 97.8572762 366.15234375 108.296875 C364.72528135 110.08912034 363.25882659 111.85073818 361.75390625 113.578125 C353.91643776 122.58670947 347.41815562 132.44588326 340.77929688 142.35107422 C338.31402064 146.02125084 335.81873423 149.67021072 333.3125 153.3125 C332.88340332 153.93697021 332.45430664 154.56144043 332.01220703 155.20483398 C327.12452465 162.29976805 322.14201328 169.32814348 317.15405273 176.3527832 C316.07981721 177.88607432 315.03848464 179.44227304 314 181 C314.82242187 181.71542969 315.64484375 182.43085938 316.4921875 183.16796875 C329.17465044 194.39969843 338.43010517 206.84192556 346 222 C346 222.66 346 223.32 346 224 C344.95360352 223.30551758 343.90720703 222.61103516 342.82910156 221.89550781 C309.79519112 199.98873143 277.84194993 180.8940782 240.9375 166.0625 C238.77270764 165.18606195 236.60815979 164.30901974 234.44384766 163.43139648 C222.93606365 158.77049765 211.40919062 154.15758161 199.875 149.5625 C176.25415091 140.14764416 152.93710667 130.27081082 129.95263672 119.38818359 C127.40603492 118.19089752 124.85112324 117.01827582 122.28515625 115.86328125 C110.99116737 110.75162477 100.29977331 104.66576735 89.56738281 98.47314453 C87.40598814 97.23295287 85.23639505 96.01251328 83.0546875 94.80859375 C67.0906092 85.9376036 52.24820168 75.39927357 38 64 C37.41331543 63.53190918 36.82663086 63.06381836 36.22216797 62.58154297 C28.21762842 56.12671548 20.85839369 49.0525425 13.5625 41.8125 C12.72162842 40.98097412 11.88075684 40.14944824 11.0144043 39.29272461 C6.39028231 34.64462193 2.19073404 29.89909678 -1.70727539 24.6237793 C-2.13387451 24.08793213 -2.56047363 23.55208496 -3 23 C-3.33 23 -3.66 23 -4 23 Z " fill="#0A2334" transform="translate(183,212)"/>
<path d="M0 0 C2.52776622 2.52776622 3.62665744 5.36556671 5.02734375 8.59375 C5.32828949 9.27645462 5.62923523 9.95915924 5.93930054 10.66255188 C6.5964678 12.15427135 7.25159044 13.64689281 7.90493774 15.14028931 C9.67942023 19.19550756 11.46919138 23.24397144 13.2578125 27.29296875 C13.63579483 28.1495256 14.01377716 29.00608246 14.4032135 29.88859558 C19.38061004 41.15132666 24.47674076 52.36046923 29.56539917 63.57324219 C30.36997476 65.34618189 31.17432369 67.11922448 31.97842407 68.89237976 C32.70888259 70.50290654 33.44001002 72.11313018 34.17196655 73.72297668 C34.81890372 75.14901215 35.46190826 76.57684076 36.10025024 78.00674438 C36.69690063 79.32853049 37.31090063 80.64262998 37.94247437 81.9480896 C39.08235544 84.37825301 39.97202708 86.50434618 40.12426758 89.2019043 C38.23910717 92.21693283 35.13588256 93.32501705 32.01171875 94.76953125 C31.29537766 95.11345413 30.57903656 95.45737701 29.84098816 95.8117218 C27.56912466 96.89377399 25.28727213 97.9509467 23 99 C22.29474182 99.32401794 21.58948364 99.64803589 20.862854 99.98187256 C15.86650804 102.2638582 10.8417432 104.47921806 5.8125 106.6875 C3.4137258 107.74624967 1.01557366 108.80640045 -1.38258362 109.86654663 C-2.98706746 110.57568219 -4.59175179 111.28436432 -6.19664001 111.99258423 C-13.1232414 115.04975538 -20.03236431 118.14462477 -26.9375 121.25 C-44.36063445 129.07309116 -61.81078401 136.83553035 -79.27287292 144.57124329 C-83.88970237 146.6172543 -88.50319078 148.67018999 -93.10946655 150.73985291 C-95.77835078 151.93738695 -98.45205755 153.12405776 -101.125 154.3125 C-102.47247314 154.92484497 -102.47247314 154.92484497 -103.84716797 155.54956055 C-109.658455 158.11384833 -109.658455 158.11384833 -113 157 C-114.24829102 154.85913086 -114.24829102 154.85913086 -115.50390625 151.96484375 C-115.98835205 150.86503174 -116.47279785 149.76521973 -116.97192383 148.63208008 C-117.50213627 147.40056216 -118.03232764 146.16903517 -118.5625 144.9375 C-119.12337042 143.65660911 -119.68549596 142.37626717 -120.2487793 141.09643555 C-121.1629022 139.01891788 -122.07608301 136.94102631 -122.98554993 134.86146545 C-126.63815485 126.5130566 -130.39270625 118.21083308 -134.14205933 109.9055481 C-137.07454611 103.40878201 -139.99988106 96.90882181 -142.91851807 90.40582275 C-144.04973026 87.88937199 -145.18582591 85.37515433 -146.32177734 82.86083984 C-147.06237821 81.21330771 -147.80278245 79.56568718 -148.54296875 77.91796875 C-148.8910408 77.15067947 -149.23911285 76.3833902 -149.59773254 75.59284973 C-152 70.22739151 -152 70.22739151 -152 68 C-143.475048 70.15799962 -135.233385 72.92697948 -126.9609375 75.89453125 C-125.62745793 76.36947592 -124.29384702 76.84405195 -122.96011353 77.31828308 C-119.4703829 78.56017458 -115.98237633 79.80683697 -112.49475098 81.05462646 C-108.99618663 82.30546647 -105.49608817 83.55199653 -101.99609375 84.79882812 C-100.62446017 85.28768827 -99.25283232 85.77656449 -97.88121033 86.26545715 C-95.20540541 87.2191303 -92.52940501 88.17225231 -89.85328674 89.12504578 C-84.38566338 91.07266301 -78.91979807 93.02387208 -73.46850586 95.0168457 C-72.68130157 95.30214645 -71.89409729 95.5874472 -71.08303833 95.88139343 C-69.12682478 96.5911224 -67.17324069 97.30808854 -65.2199707 98.02587891 C-59.00546867 99.90592009 -53.66752028 99.92150701 -47.5625 97.8125 C-41.65377014 93.63315449 -39.23606969 87.65951792 -36.375 81.25 C-35.91480469 80.23284912 -35.45460938 79.21569824 -34.98046875 78.16772461 C-26.54096801 59.42427687 -18.36309703 40.5617855 -10.13232422 21.72607422 C-8.56949627 18.14978949 -7.00349849 14.57489757 -5.4375 11 C-4.76750977 9.46194702 -4.76750977 9.46194702 -4.08398438 7.89282227 C-3.68373047 6.97944092 -3.28347656 6.06605957 -2.87109375 5.125 C-2.35953735 3.95324219 -2.35953735 3.95324219 -1.83764648 2.7578125 C-1 1 -1 1 0 0 Z " fill="#FCCB0C" transform="translate(856,351)"/>
<path d="M0 0 C1 2 1 2 0.35424805 3.98583984 C-0.00628662 4.80262207 -0.36682129 5.6194043 -0.73828125 6.4609375 C-1.14095215 7.39164062 -1.54362305 8.32234375 -1.95849609 9.28125 C-2.40531738 10.3021875 -2.85213867 11.323125 -3.3125 12.375 C-13.99053346 37.48738606 -21.93808084 63.25030938 -29.63964844 89.38623047 C-41.54689761 129.79274608 -56.05754099 169.89663739 -83 203 C-83.43602539 203.54140625 -83.87205078 204.0828125 -84.32128906 204.640625 C-114.13482055 241.43619965 -155.12628965 262.45731855 -201.52490234 269.61450195 C-203.26102587 269.8849043 -204.9911711 270.19527523 -206.71508789 270.53491211 C-210.98129896 271.1389353 -215.16882774 271.1819943 -219.47265625 271.203125 C-220.3909874 271.20882507 -221.30931854 271.21452515 -222.25547791 271.22039795 C-224.20294047 271.22982602 -226.15041883 271.2363732 -228.09790039 271.24023438 C-231.00112161 271.24979781 -233.90358963 271.28078079 -236.80664062 271.3125 C-254.23358595 271.41079475 -271.12565581 269.4142533 -288 265 C-285.23926006 262.23926006 -283.61898756 262.7464565 -279.75390625 262.7265625 C-278.45517578 262.70899902 -277.15644531 262.69143555 -275.81835938 262.67333984 C-274.77844849 262.66279572 -274.77844849 262.66279572 -273.7175293 262.65203857 C-217.73870262 261.94968726 -164.69887281 241.7793881 -124.4375 202.5 C-123.633125 201.675 -122.82875 200.85 -122 200 C-121.36964844 199.40316406 -120.73929688 198.80632812 -120.08984375 198.19140625 C-86.64929592 166.04837527 -68.41532521 117.87597864 -50.28417969 76.20166016 C-42.78619692 59.02693643 -34.20402618 44.84632952 -22.6640625 30.13623047 C-19.96072867 26.66584152 -17.32254614 23.14736618 -14.6875 19.625 C-13.94765869 18.63790039 -13.94765869 18.63790039 -13.19287109 17.63085938 C-9.55592446 12.76853961 -5.97315804 7.86954254 -2.42578125 2.94140625 C-1 1 -1 1 0 0 Z " fill="#0682D5" transform="translate(686,396)"/>
<path d="M0 0 C-0.3904248 0.8758374 -0.78084961 1.7516748 -1.18310547 2.65405273 C-10.2935945 23.09737795 -19.34225254 43.56690537 -28.32177734 64.06811523 C-28.69443222 64.91851883 -29.0670871 65.76892242 -29.45103455 66.64509583 C-30.15152532 68.24382993 -30.85155181 69.84276758 -31.55104065 71.44194031 C-33.88842621 76.77685243 -33.88842621 76.77685243 -35 79 C-41.61596858 78.39822994 -47.49309014 76.2582336 -53.72265625 74.02734375 C-55.42741371 73.42533897 -55.42741371 73.42533897 -57.16661072 72.81117249 C-60.80076555 71.52604139 -64.43160756 70.23181574 -68.0625 68.9375 C-70.44575932 68.09382393 -72.82922115 67.25071968 -75.21289062 66.40820312 C-89.50345382 61.34948902 -103.7634499 56.20868891 -118 51 C-115.39185864 48.24958349 -113.07446281 46.95906919 -109.5703125 45.453125 C-108.40918945 44.94958496 -107.24806641 44.44604492 -106.05175781 43.92724609 C-104.74286935 43.36809193 -103.43394884 42.80901279 -102.125 42.25 C-100.73765116 41.65125861 -99.35061759 41.05178628 -97.96386719 40.45166016 C-94.8038411 39.08519412 -91.64211182 37.72275671 -88.47949219 36.36230469 C-82.3366696 33.71725499 -76.20340596 31.0503269 -70.0703125 28.3828125 C-59.78963899 23.91179126 -49.50473017 19.45066276 -39.21681213 14.99633789 C-33.67735165 12.59698261 -28.14092518 10.19105862 -22.61105347 7.76968384 C-20.55072562 6.86814732 -18.48907814 5.96972166 -16.42675781 5.07275391 C-14.0940305 4.05766141 -11.76375465 3.03690779 -9.43652344 2.00927734 C-8.45329102 1.58340332 -7.47005859 1.1575293 -6.45703125 0.71875 C-5.2191687 0.17637695 -5.2191687 0.17637695 -3.95629883 -0.37695312 C-2 -1 -2 -1 0 0 Z " fill="#FBCC0C" transform="translate(836,355)"/>
<path d="M0 0 C-1.71221784 3.42443568 -5.75039395 4.29997737 -9.125 5.8125 C-33.36359381 17.02308145 -54.95394353 31.65877601 -76.3203125 47.53125 C-164.47661482 113 -164.47661482 113 -195 113 C-195 111.35 -195 109.7 -195 108 C-194.13761719 107.68289063 -193.27523437 107.36578125 -192.38671875 107.0390625 C-156.61047695 93.36324462 -125.51945276 69.16051275 -94.73901367 46.86206055 C-88.89336006 42.63179492 -83.01606036 38.44848512 -77.10449219 34.31079102 C-73.88768291 32.05641226 -70.69287734 29.78738472 -67.5625 27.4140625 C-49.56324176 13.86292728 -23.36047292 -1.22949857 0 0 Z " fill="#0580D2" transform="translate(395,639)"/>
<path d="M0 0 C3.73264472 0.79195835 6.87016066 1.91156595 10.35986328 3.44311523 C10.95958954 3.70330948 11.5593158 3.96350372 12.17721558 4.23158264 C14.072432 5.05583467 15.96225917 5.89166765 17.85205078 6.72827148 C19.12643938 7.28571519 20.40117658 7.84236266 21.67626953 8.39819336 C24.01986792 9.4198094 26.36077199 10.44681392 28.70019531 11.47802734 C31.35909811 12.63119079 34.02982154 13.73098908 36.72705078 14.79077148 C36.72705078 15.45077148 36.72705078 16.11077148 36.72705078 16.79077148 C28.99242055 19.90781563 21.25592734 23.02017094 13.51702595 26.12659359 C9.92342798 27.56924658 6.3304879 29.01349298 2.73901367 30.46142578 C-0.72835524 31.85925562 -4.19740226 33.25284086 -7.66764259 34.64352608 C-8.98989034 35.1742698 -10.31153117 35.7065282 -11.63254356 36.24033928 C-13.48590829 36.98896637 -15.34166392 37.73166603 -17.19750977 38.47412109 C-18.77969551 39.11032631 -18.77969551 39.11032631 -20.3938446 39.75938416 C-23.02583443 40.70224707 -25.52048084 41.32965305 -28.27294922 41.79077148 C-29.2182226 29.21338403 -24.0195574 21.38319437 -16.27294922 11.79077148 C-14.05247616 9.31426904 -11.72580093 7.03437518 -9.27294922 4.79077148 C-8.77021484 4.27256836 -8.26748047 3.75436523 -7.74951172 3.22045898 C-5.04870708 0.60539418 -3.81002395 -0.24356188 0 0 Z " fill="#385663" transform="translate(729.27294921875,346.209228515625)"/>
<path d="M0 0 C4.28474894 2.95220674 6.62476447 6.62038716 8.2734375 11.56640625 C8.97988006 18.73506104 8.58115522 24.6256975 4.2734375 30.56640625 C-0.20377285 35.0436166 -5.28655777 37.24640563 -11.5390625 38.06640625 C-17.50043335 37.7996523 -23.27954256 35.06929422 -27.4375 30.81640625 C-31.84347899 24.90781015 -32.67908328 18.76443259 -31.7265625 11.56640625 C-29.12229789 5.08942056 -24.39724565 0.59494168 -18.3515625 -2.74609375 C-11.22244221 -4.6132443 -6.3710051 -3.44034275 0 0 Z " fill="#0A2335" transform="translate(663.7265625,311.43359375)"/>
<path d="M0 0 C-1.71209184 3.42418369 -5.75009871 4.3009482 -9.125 5.8125 C-17.10506478 9.48204631 -24.79877246 13.54096589 -32.4375 17.875 C-33.42572754 18.43421143 -34.41395508 18.99342285 -35.43212891 19.56958008 C-40.45471529 22.38190397 -40.45471529 22.38190397 -45.10961914 25.73876953 C-45.73344482 26.15497559 -46.35727051 26.57118164 -47 27 C-47.99 26.67 -48.98 26.34 -50 26 C-49.01 25.40832031 -48.02 24.81664062 -47 24.20703125 C-44.28713794 22.58473768 -41.57812751 20.95621654 -38.87109375 19.32421875 C-36.66478779 17.99467542 -34.45300084 16.68380217 -32.22265625 15.39453125 C-30.43261126 14.34251566 -28.70585868 13.18365705 -27 12 C-27 11.01 -27 10.02 -27 9 C-25.01086947 6.51358683 -22.8684078 5.30382173 -20 4 C-19.39800781 3.67386719 -18.79601562 3.34773437 -18.17578125 3.01171875 C-12.62200374 0.42926206 -6.06700685 -0.31931615 0 0 Z " fill="#078CDF" transform="translate(395,639)"/>
<path d="M0 0 C3.94334659 3.82715221 7.50996019 7.87378892 11.0625 12.0625 C18.94597532 21.25142558 27.25500243 29.93894612 36.57421875 37.6953125 C38 39 38 39 39 41 C31.74601342 40.52432875 25.73187777 38.70533406 19 36 C22 35 22 35 24 35 C24.33 33.68 24.66 32.36 25 31 C24.34 30.67 23.68 30.34 23 30 C22.72414062 29.41476562 22.44828125 28.82953125 22.1640625 28.2265625 C20.66958202 25.36799245 18.71108361 23.5953643 16.375 21.375 C12.13374991 17.2318135 8.39052063 12.9314461 4.7890625 8.2265625 C2.98954518 5.98698854 1.06614466 3.99332899 -1 2 C-0.67 1.34 -0.34 0.68 0 0 Z " fill="#0A1F2E" transform="translate(201,334)"/>
<path d="M0 0 C4.66291491 1.36960156 8.63073431 3.34813667 12.74609375 5.8828125 C13.38929062 6.27397247 14.03248749 6.66513245 14.69517517 7.06814575 C23.75286627 12.62502723 32.57093495 18.55760792 41.41772461 24.44140625 C43.70506968 25.96106604 45.99502931 27.47672457 48.28515625 28.9921875 C48.972715 29.45156708 49.66027374 29.91094666 50.3686676 30.38424683 C53.34857616 32.35544523 56.1812726 34.08616499 59.41967773 35.62548828 C62 37 62 37 63 40 C58.35802895 38.40385255 54.59909443 35.9118 50.55859375 33.1953125 C49.08139974 32.21448881 47.60418543 31.2336957 46.12695312 30.25292969 C44.97658569 29.48547424 44.97658569 29.48547424 43.80297852 28.70251465 C32.22688015 20.98252708 20.65339134 13.32428618 8.59936523 6.36376953 C7.88594971 5.94981934 7.17253418 5.53586914 6.4375 5.109375 C5.53837891 4.59842285 5.53837891 4.59842285 4.62109375 4.07714844 C2.8431412 2.89577394 1.45844256 1.55264288 0 0 Z " fill="#09101D" transform="translate(468,397)"/>
<path d="M0 0 C-3.63635985 3.85550018 -7.41691848 6.86741138 -11.8125 9.8125 C-12.40998047 10.21919922 -13.00746094 10.62589844 -13.62304688 11.04492188 C-15.07874564 12.03479703 -16.53891174 13.01809735 -18 14 C-18.66 13.67 -19.32 13.34 -20 13 C-19.01 12.34 -18.02 11.68 -17 11 C-15.79549696 8.44816596 -15.79549696 8.44816596 -15 6 C-19.455 6.495 -19.455 6.495 -24 7 C-23 5 -23 5 -19.39453125 3.7109375 C-17.86962877 3.25733571 -16.34212851 2.81240001 -14.8125 2.375 C-14.05646484 2.14554688 -13.30042969 1.91609375 -12.52148438 1.6796875 C-8.23083953 0.4293348 -4.51680484 -0.27374575 0 0 Z " fill="#0A1B2B" transform="translate(300,642)"/>
<path d="M0 0 C12.21 0 24.42 0 37 0 C37 0.33 37 0.66 37 1 C24.36924742 3.49057093 11.81664856 3.20534438 -1 3 C-0.67 2.01 -0.34 1.02 0 0 Z " fill="#0E1A24" transform="translate(450,683)"/>
<path d="M0 0 C1.10472656 0.06058594 2.20945313 0.12117187 3.34765625 0.18359375 C16.22806767 0.88040059 29.11216114 1.4593123 42 2 C42 2.33 42 2.66 42 3 C29.79 3 17.58 3 5 3 C14.7930062 9.36363369 14.7930062 9.36363369 25 15 C24.67 15.66 24.34 16.32 24 17 C3.31171548 6.62343096 3.31171548 6.62343096 0 0 Z " fill="#14B8F6" transform="translate(167,628)"/>
<path d="M0 0 C3.94328208 3.8270896 7.5106335 7.87327108 11.0625 12.0625 C17.04930293 19.05879132 23.38509886 25.59963619 30 32 C27 32 27 32 25.31762695 30.68994141 C24.71394287 30.08327637 24.11025879 29.47661133 23.48828125 28.8515625 C22.81635742 28.1802832 22.14443359 27.50900391 21.45214844 26.81738281 C20.74606445 26.09389648 20.03998047 25.37041016 19.3125 24.625 C18.59223633 23.89635742 17.87197266 23.16771484 17.12988281 22.41699219 C12.63638301 17.82178347 8.43085137 13.16459575 4.578125 8.015625 C2.8676446 5.83095201 0.9947274 3.92534558 -1 2 C-0.67 1.34 -0.34 0.68 0 0 Z " fill="#080E16" transform="translate(201,334)"/>
<path d="M0 0 C0.96655518 0.42297363 0.96655518 0.42297363 1.95263672 0.85449219 C4.9260592 2.1545992 7.90052154 3.45231087 10.875 4.75 C11.88820312 5.1934375 12.90140625 5.636875 13.9453125 6.09375 C20.25401743 8.8436983 26.59265391 11.48822086 33 14 C31 16 31 16 29.0546875 16.1953125 C27.03645833 16.13020833 25.01822917 16.06510417 23 16 C24.32 15.34 25.64 14.68 27 14 C26.39526855 13.74307373 25.79053711 13.48614746 25.16748047 13.22143555 C22.40248888 12.04540093 19.63873868 10.86647582 16.875 9.6875 C15.92367188 9.28337891 14.97234375 8.87925781 13.9921875 8.46289062 C9.25193377 6.43840726 4.57339238 4.37908796 0 2 C0 1.34 0 0.68 0 0 Z " fill="#0A0D16" transform="translate(242,448)"/>
<path d="M0 0 C2.6895528 2.6895528 3.69331154 5.45327417 5 9 C4.67 9.99 4.34 10.98 4 12 C2.02 8.535 2.02 8.535 0 5 C-0.43868408 6.0372522 -0.43868408 6.0372522 -0.88623047 7.09545898 C-2.20899203 10.21242251 -3.54184495 13.32496858 -4.875 16.4375 C-5.33519531 17.52611328 -5.79539062 18.61472656 -6.26953125 19.73632812 C-6.71425781 20.77080078 -7.15898438 21.80527344 -7.6171875 22.87109375 C-8.02565918 23.82943115 -8.43413086 24.78776855 -8.85498047 25.77514648 C-10 28 -10 28 -12 29 C-11.37183114 25.22927988 -10.28064931 22.01407901 -8.75 18.515625 C-8.3065625 17.49855469 -7.863125 16.48148437 -7.40625 15.43359375 C-6.71015625 13.85771484 -6.71015625 13.85771484 -6 12.25 C-5.30390625 10.65091797 -5.30390625 10.65091797 -4.59375 9.01953125 C-1.14143991 1.14143991 -1.14143991 1.14143991 0 0 Z " fill="#EFE108" transform="translate(856,351)"/>
<path d="M0 0 C0 3 0 3 -2.40625 5.69921875 C-3.4299968 6.70302243 -4.4616054 7.69885649 -5.5 8.6875 C-6.02464844 9.19861328 -6.54929687 9.70972656 -7.08984375 10.23632812 C-8.38660904 11.49772708 -9.69246117 12.74977212 -11 14 C-11.66 13.67 -12.32 13.34 -13 13 C-10.69 10.69 -8.38 8.38 -6 6 C-6.83144531 6.44472656 -7.66289062 6.88945313 -8.51953125 7.34765625 C-10.14955078 8.19650391 -10.14955078 8.19650391 -11.8125 9.0625 C-12.89144531 9.63097656 -13.97039062 10.19945312 -15.08203125 10.78515625 C-18 12 -18 12 -21 11 C-17.87517628 9.35383182 -14.75011114 7.70812246 -11.625 6.0625 C-10.29082031 5.35963867 -10.29082031 5.35963867 -8.9296875 4.64257812 C-8.07890625 4.19462891 -7.228125 3.74667969 -6.3515625 3.28515625 C-5.56604004 2.87144775 -4.78051758 2.45773926 -3.97119141 2.03149414 C-2.65378141 1.34211376 -1.32990658 0.66495329 0 0 Z " fill="#0A111C" transform="translate(393,640)"/>
<path d="M0 0 C3.58435001 1.19478334 4.16528225 2.25867903 6.375 5.25 C9.93335402 9.83735565 13.76964715 13.97189421 17.875 18.0625 C18.44653809 18.63452148 19.01807617 19.20654297 19.60693359 19.79589844 C22.53176106 22.75827087 22.53176106 22.75827087 26 25 C25.67 25.66 25.34 26.32 25 27 C16.01455061 19.45634192 7.26836699 11.2327905 0 2 C0 1.34 0 0.68 0 0 Z " fill="#12B5EF" transform="translate(208,341)"/>
<path d="M0 0 C0.87591797 0.33451172 0.87591797 0.33451172 1.76953125 0.67578125 C1.02678955 1.09255127 0.28404785 1.50932129 -0.48120117 1.9387207 C-3.10500378 3.59650914 -5.04991822 5.26465266 -7.21875 7.46875 C-7.92451172 8.18095703 -8.63027344 8.89316406 -9.35742188 9.62695312 C-10.07865234 10.36494141 -10.79988281 11.10292969 -11.54296875 11.86328125 C-12.28353516 12.61287109 -13.02410156 13.36246094 -13.78710938 14.13476562 C-15.60618587 15.97731407 -17.42041264 17.82437787 -19.23046875 19.67578125 C-19.23046875 13.51666252 -12.14392776 8.595919 -7.9921875 4.4296875 C-2.82130554 -0.41010221 -2.82130554 -0.41010221 0 0 Z " fill="#3F5E6A" transform="translate(728.23046875,346.32421875)"/>
<path d="M0 0 C3.56669804 0.60231399 6.57808629 1.56157501 9.86328125 3.06640625 C11.19262695 3.6706543 11.19262695 3.6706543 12.54882812 4.28710938 C13.46083984 4.70798828 14.37285156 5.12886719 15.3125 5.5625 C16.24384766 5.98724609 17.17519531 6.41199219 18.13476562 6.84960938 C20.4253672 7.89506343 22.71363659 8.94531756 25 10 C21.18415465 11.27194845 20.34655304 10.48462688 16.8125 8.75 C12.26607964 6.57956794 7.7405299 4.69943525 3 3 C3 4.65 3 6.3 3 8 C1.0549 5.08235 0.54723683 3.37462715 0 0 Z " fill="#12B3F1" transform="translate(172,351)"/>
<path d="M0 0 C4.23557353 3.7457872 5.96573398 8.94106057 8.25 14 C8.72179687 15.010625 9.19359375 16.02125 9.6796875 17.0625 C10.12054687 18.031875 10.56140625 19.00125 11.015625 20 C11.42071289 20.886875 11.82580078 21.77375 12.24316406 22.6875 C13 25 13 25 12 28 C10.82866942 25.54379149 9.66278278 23.08525083 8.5 20.625 C8.16613281 19.92632812 7.83226562 19.22765625 7.48828125 18.5078125 C5 13.2265625 5 13.2265625 5 11 C4.34 11 3.68 11 3 11 C2.814375 9.948125 2.814375 9.948125 2.625 8.875 C1.96161655 5.82343613 1.02788045 2.94659062 0 0 Z " fill="#F2E206" transform="translate(874,393)"/>
<path d="M0 0 C0 3 0 3 -2.15234375 5.41015625 C-3.07144531 6.28542969 -3.99054688 7.16070313 -4.9375 8.0625 C-8.41202226 11.19960301 -8.41202226 11.19960301 -11 15 C-8.03 15.495 -8.03 15.495 -5 16 C-5.33 16.66 -5.66 17.32 -6 18 C-8.31 17.34 -10.62 16.68 -13 16 C-13 13 -13 13 -11.80664062 11.46606445 C-11.26201172 10.937146 -10.71738281 10.40822754 -10.15625 9.86328125 C-9.56972656 9.28642578 -8.98320312 8.70957031 -8.37890625 8.11523438 C-7.75886719 7.52033203 -7.13882812 6.92542969 -6.5 6.3125 C-5.87996094 5.70599609 -5.25992187 5.09949219 -4.62109375 4.47460938 C-3.08735293 2.97626257 -1.54451802 1.48723507 0 0 Z " fill="#13BCFD" transform="translate(395,640)"/>
<path d="M0 0 C0.94101562 0.00322266 1.88203125 0.00644531 2.8515625 0.00976562 C3.83640625 0.01814453 4.82125 0.02652344 5.8359375 0.03515625 C6.82851563 0.03966797 7.82109375 0.04417969 8.84375 0.04882812 C11.2995391 0.0606348 13.75520854 0.07710225 16.2109375 0.09765625 C16.2109375 0.42765625 16.2109375 0.75765625 16.2109375 1.09765625 C12.9109375 1.42765625 9.6109375 1.75765625 6.2109375 2.09765625 C6.8709375 2.75765625 7.5309375 3.41765625 8.2109375 4.09765625 C6.46023233 3.98295488 4.71036214 3.85546597 2.9609375 3.72265625 C1.98640625 3.65304687 1.011875 3.5834375 0.0078125 3.51171875 C-2.68539439 3.11300376 -4.45869529 2.46258562 -6.7890625 1.09765625 C-4.33631109 -0.12871945 -2.7384844 -0.01649689 0 0 Z " fill="#0A8DE2" transform="translate(404.7890625,658.90234375)"/>
<path d="M0 0 C1.64815841 3.29631681 1.2972447 6.73725246 0.46484375 10.2734375 C-0.09777264 13.57348992 0.13475457 16.48230032 0.4375 19.8125 C0.53933594 20.97394531 0.64117187 22.13539063 0.74609375 23.33203125 C0.82988281 24.21246094 0.91367188 25.09289062 1 26 C-2.34555557 20.98166664 -2.15583133 15.72187351 -2.1875 9.8125 C-2.20167969 8.60207031 -2.21585938 7.39164062 -2.23046875 6.14453125 C-2 3 -2 3 0 0 Z " fill="#070E14" transform="translate(154,330)"/>
<path d="M0 0 C-0.33 0.66 -0.66 1.32 -1 2 C-3.64 2 -6.28 2 -9 2 C-9 2.66 -9 3.32 -9 4 C-11.25 5.125 -11.25 5.125 -14 6 C-16.3125 5.125 -16.3125 5.125 -18 4 C-13.74339803 -0.25660197 -5.75402165 -0.30284324 0 0 Z " fill="#077ACC" transform="translate(395,639)"/>
<path d="M0 0 C0.99 0.33 1.98 0.66 3 1 C-1.2954975 4.74123976 -5.99900452 7.34151874 -11 10 C-11.66 9.34 -12.32 8.68 -13 8 C-10.90320896 6.63304778 -8.7989062 5.28153009 -6.6875 3.9375 C-6.09259766 3.54755859 -5.49769531 3.15761719 -4.88476562 2.75585938 C-3.30390365 1.75788505 -1.65405288 0.87131304 0 0 Z " fill="#0576C1" transform="translate(258,725)"/>
<path d="M0 0 C-2.64110204 1.7607347 -5.03305734 3.00960644 -7.9375 4.25 C-8.79214844 4.62640625 -9.64679688 5.0028125 -10.52734375 5.390625 C-13 6 -13 6 -15.31640625 5.109375 C-15.87199219 4.74328125 -16.42757812 4.3771875 -17 4 C-14.92227529 3.13227971 -12.83756823 2.28126381 -10.75 1.4375 C-9.58984375 0.96183594 -8.4296875 0.48617187 -7.234375 -0.00390625 C-4.13733356 -0.95770524 -2.92678299 -1.20983356 0 0 Z " fill="#0476C0" transform="translate(232,742)"/>
<path d="M0 0 C3.7952131 1.49097658 5.61042731 3.75700849 8 7 C6.5199159 6.88637738 5.04089926 6.75877092 3.5625 6.625 C2.73878906 6.55539062 1.91507813 6.48578125 1.06640625 6.4140625 C0.38449219 6.27742188 -0.29742187 6.14078125 -1 6 C-1.33 5.34 -1.66 4.68 -2 4 C-1.34 4 -0.68 4 0 4 C0 2.68 0 1.36 0 0 Z " fill="#0A1622" transform="translate(232,368)"/>
<path d="M0 0 C0.33 0.66 0.66 1.32 1 2 C0.13986463 4.42188287 -0.77684099 6.71765578 -1.8125 9.0625 C-2.08642578 9.71283203 -2.36035156 10.36316406 -2.64257812 11.03320312 C-4.74175664 15.87087832 -4.74175664 15.87087832 -7 17 C-7.67578125 15.28125 -7.67578125 15.28125 -8 13 C-6.85546875 10.78125 -6.85546875 10.78125 -5.1875 8.5 C-3.19460651 5.73551117 -1.44109863 3.09308975 0 0 Z " fill="#0590E3" transform="translate(686,396)"/>
<path d="M0 0 C-4.455 1.485 -4.455 1.485 -9 3 C-9 3.66 -9 4.32 -9 5 C-7.02 5.66 -5.04 6.32 -3 7 C-6 8 -6 8 -8.04296875 7.22265625 C-8.75066406 6.83980469 -9.45835937 6.45695313 -10.1875 6.0625 C-10.90292969 5.68222656 -11.61835938 5.30195312 -12.35546875 4.91015625 C-12.89816406 4.60980469 -13.44085938 4.30945313 -14 4 C-11.68516093 1.68516093 -10.10977477 1.2391044 -7 0.3125 C-6.113125 0.04050781 -5.22625 -0.23148438 -4.3125 -0.51171875 C-2 -1 -2 -1 0 0 Z " fill="#13BCF5" transform="translate(304,559)"/>
<path d="M0 0 C2.97 0.99 5.94 1.98 9 3 C7.68 3.99 6.36 4.98 5 6 C5 5.01 5 4.02 5 3 C5 7 5 7 4 10 C3.32845067 8.71086513 2.66291141 7.41859796 2 6.125 C1.62875 5.40570313 1.2575 4.68640625 0.875 3.9453125 C0 2 0 2 0 0 Z " fill="#F3DE08" transform="translate(704,419)"/>
<path d="M0 0 C3.3 0.33 6.6 0.66 10 1 C10 1.66 10 2.32 10 3 C10.66 3.33 11.32 3.66 12 4 C7.83861737 4.08159574 4.0527516 3.98248524 0 3 C0 2.01 0 1.02 0 0 Z " fill="#119FEC" transform="translate(216,650)"/>
<path d="M0 0 C0.66 0.33 1.32 0.66 2 1 C1.01 3.31 0.02 5.62 -1 8 C-1.99 8 -2.98 8 -4 8 C-4.66 6.68 -5.32 5.36 -6 4 C-3.94766315 1.7522025 -2.99332739 0.9977758 0 0 Z " fill="#F1D20A" transform="translate(834,354)"/>
<path d="M0 0 C0.33 0.66 0.66 1.32 1 2 C-0.92333011 6.06036357 -3.40069448 8.37347975 -7 11 C-7.66 10.67 -8.32 10.34 -9 10 C-6.03 6.7 -3.06 3.4 0 0 Z " fill="#12B1F8" transform="translate(554,315)"/>
<path d="M0 0 C3.96 0 7.92 0 12 0 C12.33 0.66 12.66 1.32 13 2 C10.00519083 2.8723412 7.36424089 3.10829766 4.25 3.0625 C3.45078125 3.05347656 2.6515625 3.04445313 1.828125 3.03515625 C1.22484375 3.02355469 0.6215625 3.01195312 0 3 C0 2.01 0 1.02 0 0 Z " fill="#092942" transform="translate(174,626)"/>
<path d="M0 0 C0.66 0 1.32 0 2 0 C2 0.99 2 1.98 2 3 C1.01 2.67 0.02 2.34 -1 2 C-0.67 1.34 -0.34 0.68 0 0 Z M-2 4 C-2 7 -2 7 -3.53125 8.82421875 C-4.1809375 9.43910156 -4.830625 10.05398438 -5.5 10.6875 C-6.1496875 11.31011719 -6.799375 11.93273437 -7.46875 12.57421875 C-7.9740625 13.04472656 -8.479375 13.51523437 -9 14 C-9.66 13.67 -10.32 13.34 -11 13 C-8.03 10.03 -5.06 7.06 -2 4 Z " fill="#112B3A" transform="translate(560,281)"/>
<path d="M0 0 C0.66 0.33 1.32 0.66 2 1 C2.05416188 2.60379341 2.09286638 4.20811406 2.125 5.8125 C2.14820313 6.70582031 2.17140625 7.59914063 2.1953125 8.51953125 C2 11 2 11 0 14 C-0.19456705 12.04235617 -0.38044247 10.08384679 -0.5625 8.125 C-0.66691406 7.03445313 -0.77132812 5.94390625 -0.87890625 4.8203125 C-1 2 -1 2 0 0 Z " fill="#10A2F0" transform="translate(178,267)"/>
<path d="M0 0 C2.72426311 2.35277269 3.8141763 4.62496331 5 8 C2 8 2 8 0.25 6.8125 C-1 5 -1 5 -0.6875 2.3125 C-0.460625 1.549375 -0.23375 0.78625 0 0 Z " fill="#0B1C28" transform="translate(524,425)"/>
<path d="M0 0 C0.66 0.33 1.32 0.66 2 1 C-0.625 4.875 -0.625 4.875 -4 6 C-4.66 6.66 -5.32 7.32 -6 8 C-6.99 7.67 -7.98 7.34 -9 7 C-6.03 4.69 -3.06 2.38 0 0 Z " fill="#0B151F" transform="translate(315,688)"/>
<path d="M0 0 C0 3.28565953 -0.24329531 4.28509275 -2 7 C-3.92358201 8.79056836 -5.92632276 10.37712216 -8 12 C-6.59023295 8.96147295 -4.91129772 6.4060405 -2.875 3.75 C-2.06675781 2.69039062 -2.06675781 2.69039062 -1.2421875 1.609375 C-0.83226562 1.07828125 -0.42234375 0.5471875 0 0 Z " fill="#0478C7" transform="translate(587,569)"/>
<path d="M0 0 C3.3 0.99 6.6 1.98 10 3 C9.01 3.66 8.02 4.32 7 5 C3.3125 4.125 3.3125 4.125 0 3 C0 2.01 0 1.02 0 0 Z " fill="#ECCF0B" transform="translate(736,430)"/>
<path d="M0 0 C0.66 0.33 1.32 0.66 2 1 C-0.25 3.5625 -0.25 3.5625 -3 6 C-4.32 5.67 -5.64 5.34 -7 5 C-4.69 3.35 -2.38 1.7 0 0 Z " fill="#0B1621" transform="translate(273,718)"/>
<path d="M0 0 C0.66 0.33 1.32 0.66 2 1 C-0.46153846 6.66153846 -0.46153846 6.66153846 -3.1875 8.375 C-3.785625 8.58125 -4.38375 8.7875 -5 9 C-3.7508258 5.54074837 -2.32472205 2.85306797 0 0 Z " fill="#11B3F8" transform="translate(518,363)"/>
<path d="M0 0 C2.31 0.33 4.62 0.66 7 1 C7 1.66 7 2.32 7 3 C8.32 3.66 9.64 4.32 11 5 C6.62886504 4.49172849 3.61004338 3.54826592 0 1 C0 0.67 0 0.34 0 0 Z " fill="#0A1421" transform="translate(190,357)"/>
<path d="M0 0 C1.98 0 3.96 0 6 0 C6.33 1.32 6.66 2.64 7 4 C4.36 3.34 1.72 2.68 -1 2 C-0.67 1.34 -0.34 0.68 0 0 Z " fill="#0FA4F0" transform="translate(202,647)"/>
<path d="M0 0 C-1 1.5 -1 1.5 -3 3 C-5.71846235 3.27345479 -8.25677199 3.13491285 -11 3 C-10 1 -10 1 -8.3125 0.375 C-5.51555886 -0.07855802 -2.82858003 -0.06428591 0 0 Z " fill="#0B1322" transform="translate(300,642)"/>
<path d="M0 0 C-1.04874998 2.62187494 -1.64931313 3.79371361 -4.125 5.25 C-4.74375 5.4975 -5.3625 5.745 -6 6 C-6.66 5.34 -7.32 4.68 -8 4 C-2.25 0 -2.25 0 0 0 Z " fill="#0574BE" transform="translate(277,714)"/>
<path d="M0 0 C4.30840713 1.07710178 7.63576723 2.03947516 11 5 C6.62886504 4.49172849 3.61004338 3.54826592 0 1 C0 0.67 0 0.34 0 0 Z " fill="#09101B" transform="translate(440,384)"/>
<path d="M0 0 C0.66 0 1.32 0 2 0 C2 0.66 2 1.32 2 2 C4.97 2.495 4.97 2.495 8 3 C7.67 3.66 7.34 4.32 7 5 C4.69 4.34 2.38 3.68 0 3 C0 2.01 0 1.02 0 0 Z " fill="#11B0ED" transform="translate(382,653)"/>
<path d="M0 0 C0.99 0.33 1.98 0.66 3 1 C2.071875 1.4021875 2.071875 1.4021875 1.125 1.8125 C-1.2995233 2.95556848 -1.2995233 2.95556848 -3 6 C-3.99 5.34 -4.98 4.68 -6 4 C-3.1875 1.9375 -3.1875 1.9375 0 0 Z " fill="#12B1F6" transform="translate(592,282)"/>
</svg>
